P3 
5 4
 255 
255 0 0
255 0 0
155 128 0
255 255 0
255 255 0
255 0 0
255 0 0
155 128 0
255 255 0
255 255 0
0 255 0
0 255 0
255 255 255
128 255 128
128 255 128
0 255 0
0 255 0
255 255 255
128 255 128
128 255 128
