P3 
3 2
 255 
100 100 200
100 100 200
255 255 0
100 100 200
255 255 255
128 255 128
