P3 
3 2
 255 
76 76 76
122 122 122
226 226 226
150 150 150
254 254 254
202 202 202
