P3 
3 2
 255 
76 0 0
46 76 0
76 150 0
0 150 0
76 150 28
38 150 14
